<svg width="24" height="25" viewBox="0 0 24 25" fill="none" xmlns="http://www.w3.org/2000/svg">
<path d="M16.7252 12.8262C16.2664 12.8252 15.8105 12.8987 15.3752 13.0437C14.9173 12.8193 14.4435 12.6288 13.9577 12.4737C13.7965 12.4244 13.6552 12.3252 13.5541 12.1904C13.453 12.0556 13.3973 11.8922 13.3952 11.7237C13.3953 11.5525 13.437 11.3838 13.5167 11.2323C13.5964 11.0807 13.7117 10.9508 13.8527 10.8537C14.4599 10.435 14.9561 9.87479 15.2985 9.22145C15.6408 8.56812 15.819 7.84127 15.8177 7.10368C15.81 6.49281 15.6807 5.8896 15.4372 5.32929C15.1938 4.76898 14.8411 4.26282 14.3998 3.84037C13.9585 3.41792 13.4374 3.08766 12.867 2.86888C12.2966 2.6501 11.6883 2.5472 11.0777 2.56619C9.84762 2.54004 8.65747 3.00324 7.76871 3.85403C6.87994 4.70483 6.36524 5.87363 6.33769 7.10368C6.33635 7.84127 6.51454 8.56812 6.85689 9.22145C7.19923 9.87479 7.69545 10.435 8.30269 10.8537C8.44276 10.9512 8.55693 11.0814 8.63535 11.233C8.71376 11.3846 8.75402 11.553 8.75267 11.7237C8.74987 11.8909 8.69489 12.0531 8.59538 12.1876C8.49587 12.3221 8.35682 12.4221 8.19768 12.4737C6.92268 12.8712 3.87018 14.1462 3.04518 17.3187C2.98625 17.5546 2.98195 17.8009 3.03264 18.0388C3.08333 18.2766 3.18768 18.4998 3.33769 18.6912C3.49294 18.8934 3.69291 19.0568 3.92194 19.1687C4.15096 19.2806 4.40281 19.3379 4.6577 19.3362H13.1552C13.5501 19.9578 14.1003 20.4658 14.7514 20.81C15.4026 21.1541 16.1322 21.3227 16.8683 21.299C17.6044 21.2753 18.3216 21.0601 18.9492 20.6747C19.5768 20.2893 20.0932 19.747 20.4473 19.1012C20.8014 18.4554 20.9811 17.7285 20.9687 16.9921C20.9563 16.2557 20.7521 15.5353 20.3764 14.9019C20.0007 14.2684 19.4663 13.7438 18.826 13.3798C18.1858 13.0159 17.4617 12.825 16.7252 12.8262ZM4.6577 18.5862C4.51377 18.5906 4.37082 18.561 4.24049 18.4997C4.11017 18.4385 3.99616 18.3473 3.9077 18.2337C3.82491 18.1295 3.76755 18.0075 3.7402 17.8773C3.71286 17.7471 3.71627 17.6123 3.75018 17.4837C4.50018 14.6712 7.23768 13.5312 8.39268 13.1637C8.71574 13.0715 8.99851 12.8736 9.19569 12.6016C9.39288 12.3297 9.49308 11.9994 9.48019 11.6637C9.48567 11.3717 9.42029 11.0827 9.28967 10.8214C9.15906 10.5602 8.9671 10.3345 8.73019 10.1637C8.22519 9.81333 7.81263 9.34579 7.52788 8.8011C7.24312 8.25641 7.09467 7.65081 7.0952 7.03618C7.12269 6.00503 7.55832 5.02696 8.30644 4.3168C9.05457 3.60664 10.054 3.22247 11.0852 3.24868C11.5971 3.23067 12.1073 3.31484 12.5863 3.49627C13.0653 3.6777 13.5033 3.95276 13.8748 4.30538C14.2462 4.65799 14.5437 5.08108 14.7498 5.54996C14.9559 6.01883 15.0665 6.52408 15.0752 7.03618C15.0778 7.6597 14.9274 8.27434 14.6371 8.82617C14.3468 9.378 13.9255 9.85014 13.4102 10.2012C13.1733 10.372 12.9813 10.5977 12.8507 10.8589C12.7201 11.1202 12.6547 11.4092 12.6602 11.7012C12.6549 12.0352 12.7581 12.3618 12.9542 12.6323C13.1502 12.9027 13.4286 13.1023 13.7477 13.2012C13.9427 13.2687 14.2052 13.3587 14.4977 13.4862C13.6596 14.0044 13.0291 14.7994 12.7154 15.7336C12.4017 16.6677 12.4246 17.6822 12.7802 18.6012L4.6577 18.5862ZM16.7252 20.5512C16.0354 20.5512 15.3612 20.3466 14.7876 19.9634C14.2141 19.5802 13.7671 19.0355 13.5032 18.3983C13.2392 17.761 13.1702 17.0598 13.3047 16.3833C13.4393 15.7068 13.7714 15.0854 14.2592 14.5976C14.7469 14.1099 15.3683 13.7778 16.0448 13.6432C16.7213 13.5086 17.4225 13.5777 18.0598 13.8416C18.697 14.1056 19.2417 14.5526 19.6249 15.1261C20.0081 15.6996 20.2127 16.3739 20.2127 17.0637C20.2127 17.9886 19.8453 18.8757 19.1912 19.5297C18.5372 20.1837 17.6501 20.5512 16.7252 20.5512Z" fill="#3C3C3B"/>
<path fill-rule="evenodd" clip-rule="evenodd" d="M14.7414 16.9249C14.8732 16.7931 15.0869 16.7931 15.2187 16.9249L16.1685 17.8747L18.3068 15.7364C18.4386 15.6046 18.6523 15.6046 18.7841 15.7364C18.9159 15.8682 18.9159 16.0819 18.7841 16.2137L16.1685 18.8293L14.7414 17.4022C14.6096 17.2704 14.6096 17.0567 14.7414 16.9249Z" fill="white"/>
</svg>
