<svg width="16" height="13" viewBox="0 0 16 13" fill="none" xmlns="http://www.w3.org/2000/svg">
<path d="M11.1994 12.4398H4.79944C4.16969 12.4441 3.54541 12.3226 2.96323 12.0825C2.38105 11.8423 1.85271 11.4883 1.40918 11.0412C0.965659 10.5941 0.615893 10.0629 0.380407 9.47882C0.14492 8.89474 0.028455 8.2695 0.037844 7.6398C0.0267593 7.0118 0.141214 6.3879 0.374493 5.80473C0.607771 5.22155 0.955175 4.69084 1.39632 4.24374C1.83746 3.79663 2.36346 3.44214 2.94346 3.20105C3.52345 2.95996 4.14575 2.83715 4.77384 2.8398H5.11944V3.4798H4.77384C4.22883 3.47264 3.68801 3.57589 3.18396 3.78331C2.67991 3.99074 2.22307 4.29805 1.84096 4.68674C1.45885 5.07543 1.15937 5.53746 0.960578 6.04497C0.761784 6.55248 0.667785 7.09499 0.684244 7.6398C0.675723 8.18468 0.776015 8.72577 0.979244 9.2314C1.18247 9.73703 1.48456 10.197 1.8678 10.5844C2.25104 10.9718 2.70773 11.2789 3.21113 11.4876C3.71453 11.6963 4.25451 11.8024 4.79944 11.7998H11.1994C12.3027 11.7998 13.3609 11.3615 14.141 10.5814C14.9212 9.80121 15.3594 8.7431 15.3594 7.6398C15.3594 6.5365 14.9212 5.47839 14.141 4.69824C13.3609 3.91809 12.3027 3.4798 11.1994 3.4798H8.13384L9.82984 5.1758L9.37544 5.6302L7.13544 3.3902C7.10545 3.36045 7.08164 3.32506 7.0654 3.28607C7.04915 3.24707 7.04079 3.20524 7.04079 3.163C7.04079 3.12076 7.04915 3.07893 7.0654 3.03994C7.08164 3.00094 7.10545 2.96555 7.13544 2.9358L9.37544 0.695801L9.82984 1.1502L8.13384 2.8398H11.1994C12.4725 2.8398 13.6934 3.34551 14.5936 4.24569C15.4937 5.14586 15.9994 6.36676 15.9994 7.6398C15.9994 8.91284 15.4937 10.1337 14.5936 11.0339C13.6934 11.9341 12.4725 12.4398 11.1994 12.4398Z" fill="#494B4C"/>
</svg>
