<svg width="16" height="16" viewBox="0 0 16 16" fill="none" xmlns="http://www.w3.org/2000/svg">
<g clipPath="url(#clip0)">
<path d="M11.1999 3.2002V3.8402C12.3032 3.8402 13.3613 4.27848 14.1415 5.05863C14.9216 5.83878 15.3599 6.89689 15.3599 8.0002C15.3599 9.1035 14.9216 10.1616 14.1415 10.9418C13.3613 11.7219 12.3032 12.1602 11.1999 12.1602H7.8207L9.5039 10.4642L9.0495 10.0098L6.8095 12.2626C6.77951 12.2923 6.7557 12.3277 6.73945 12.3667C6.72321 12.4057 6.71484 12.4476 6.71484 12.4898C6.71484 12.532 6.72321 12.5739 6.73945 12.6129C6.7557 12.6519 6.77951 12.6872 6.8095 12.717L9.0495 14.9442L9.5039 14.4898L7.8015 12.8002H11.1999C12.4729 12.8002 13.6938 12.2945 14.594 11.3943C15.4942 10.4941 15.9999 9.27323 15.9999 8.0002C15.9999 6.72716 15.4942 5.50626 14.594 4.60608C13.6938 3.70591 12.4729 3.2002 11.1999 3.2002Z" fill="#494B4C"/>
<path d="M4.8 3.84015H8.4992L6.816 5.53615L7.2704 5.99055L9.5104 3.73775C9.54039 3.708 9.5642 3.67261 9.58045 3.63362C9.59669 3.59462 9.60506 3.5528 9.60506 3.51055C9.60506 3.46831 9.59669 3.42648 9.58045 3.38749C9.5642 3.34849 9.54039 3.3131 9.5104 3.28335L7.2704 1.05615L6.816 1.51055L8.5184 3.20015H4.8C3.52696 3.20015 2.30606 3.70587 1.40589 4.60604C0.505713 5.50622 0 6.72711 0 8.00015C0 9.27319 0.505713 10.4941 1.40589 11.3943C2.30606 12.2944 3.52696 12.8002 4.8 12.8002V12.1602C3.6967 12.1602 2.63859 11.7219 1.85844 10.9417C1.07828 10.1616 0.64 9.10345 0.64 8.00015C0.64 6.89685 1.07828 5.83874 1.85844 5.05859C2.63859 4.27844 3.6967 3.84015 4.8 3.84015Z" fill="#494B4C"/>
</g>
<defs>
<clipPath id="clip0">
<rect width="16" height="16" fill="white"/>
</clipPath>
</defs>
</svg>
